<?xml version="1.0" encoding="utf-8"?>
<!-- Generator: Adobe Illustrator 22.0.1, SVG Export Plug-In . SVG Version: 6.00 Build 0)  -->
<svg version="1.1" id="Layer_1" xmlns="http://www.w3.org/2000/svg" xmlns:xlink="http://www.w3.org/1999/xlink" x="0px" y="0px"
	 viewBox="0 0 850 350" style="enable-background:new 0 0 850 350;" xml:space="preserve">
<style type="text/css">
	.st0{fill:url(#partLogo6_1_);}
	.st1{fill:url(#partLogo5_1_);}
	.st2{fill:url(#partLogo4_1_);}
	.st3{fill:url(#partLogo3_1_);}
	.st4{fill:url(#partLogo2_2_);}
	.st5{fill:url(#partLogo2_3_);}
	.st6{fill:url(#partLogo1_1_);}
	.st7{opacity:0.2;}
	.st8{fill:url(#SVGID_1_);}
	.st9{fill:url(#SVGID_2_);}
	.st10{fill:url(#SVGID_3_);}
	.st11{fill:url(#SVGID_4_);}
	.st12{fill:url(#SVGID_5_);}
	.st13{fill:url(#SVGID_6_);}
	.st14{fill:url(#SVGID_7_);}
	.st15{opacity:0.2;fill:url(#shadowLetter1_1_);enable-background:new    ;}
	.st16{fill:url(#letter1_1_);}
	.st17{opacity:0.2;fill:url(#shadowLetter2_1_);enable-background:new    ;}
	.st18{fill:url(#letter2_1_);}
	.st19{opacity:0.2;fill:url(#shadowLetter3_1_);enable-background:new    ;}
	.st20{fill:url(#letter3_1_);}
	.st21{opacity:0.2;fill:url(#shadowLetter4_1_);enable-background:new    ;}
	.st22{fill:url(#letter4_1_);}
	.st23{opacity:0.2;fill:url(#shadowLetter5_1_);enable-background:new    ;}
	.st24{fill:url(#letter5_1_);}
</style>
<linearGradient id="partLogo6_1_" gradientUnits="userSpaceOnUse" x1="327.1967" y1="137.9341" x2="242.084" y2="211.8703" gradientTransform="matrix(1 0 0 -1 0 352)">
	<stop  offset="0" style="stop-color:#fff"/>
	<stop  offset="1" style="stop-color:#fff"/>
</linearGradient>
<path id="partLogo6" class="st0" d="M268.5,187.4l-16.6,40c4,4.5,7.7,8.6,11.1,12.1l27.1-65.2l22.4-54.2h-16.2L268.5,187.4z"/>
<linearGradient id="partLogo5_1_" gradientUnits="userSpaceOnUse" x1="21.7932" y1="209.0314" x2="491.2028" y2="209.0314" gradientTransform="matrix(1 0 0 -1 0 352)">
	<stop  offset="0.2418" style="stop-color:#fff"/>
	<stop  offset="0.4465" style="stop-color:#fff"/>
	<stop  offset="0.9543" style="stop-color:#fff"/>
</linearGradient>
<path id="partLogo5" class="st1" d="M320.4,99.7c0-0.5-0.1-1-0.2-1.5l0,0c0-0.2-0.1-0.2-0.2-0.4c0-0.1,0-0.2-0.1-0.2
	c-0.1-0.2-0.2-0.6-0.2-0.8c-0.1-0.2-0.2-0.2-0.2-0.4c-0.1-0.1-0.1-0.2-0.2-0.3l0,0c-0.1-0.2-0.2-0.4-0.3-0.6
	c-0.2-0.2-0.3-0.4-0.5-0.6l0,0c-0.2-0.2-0.3-0.4-0.5-0.6c-0.1-0.1-0.2-0.2-0.3-0.2c-0.2-0.1-0.2-0.2-0.4-0.3
	c-0.2-0.1-0.2-0.2-0.4-0.3h-0.1c-0.4-0.2-0.8-0.5-1.2-0.6l0,0l0,0c-0.1-0.1-0.2-0.1-0.3-0.1h-0.1c-0.3-0.2-0.7-0.2-1-0.3l0,0
	c-0.3-0.1-0.6-0.1-0.9-0.1c-0.1,0-0.1,0-0.2,0c-0.2,0-0.2,0-0.4,0l0,0l0,0l0,0H294h-28.4c-0.4,0-0.8,0-1.2,0.1
	c-2.8,0.5-5.1,2.5-5.9,5.2l-17.3,42.9l-17.3,42.7c-1.1,2.8-0.4,5.8,1.5,7.9c0.1,0.1,0.1,0.2,0.2,0.2c0.7,0.7,1.5,1.3,2.5,1.6
	c0.3,0.2,0.6,0.2,1,0.3c0.6,0.2,1.2,0.2,1.8,0.2c2.3,0,4.5-1.1,6-2.9c0.4-0.6,0.7-1.1,1-1.8l32.9-81.7h17.1h14l0,0H313
	c1,0,2-0.2,2.9-0.6c1.8-0.7,3.2-2.1,4-4l0,0l0,0l0,0c0.1-0.1,0.1-0.2,0.1-0.3l0,0c0.2-0.3,0.2-0.7,0.3-1l0,0
	c0.1-0.4,0.1-0.8,0.1-1.1l0,0C320.3,99.9,320.4,99.8,320.4,99.7L320.4,99.7z"/>
<linearGradient id="partLogo4_1_" gradientUnits="userSpaceOnUse" x1="126.1137" y1="316.6255" x2="279.7178" y2="137.8027" gradientTransform="matrix(1 0 0 -1 0 352)">
	<stop  offset="0" style="stop-color:#fff"/>
	<stop  offset="1" style="stop-color:#fff"/>
</linearGradient>
<path id="partLogo4" class="st2" d="M210.4,120.1c-0.3,2.5-0.7,5-1.1,7.6c-1,5.4-2.1,10.7-3.6,15.9c-0.3,1.2-0.7,2.5-1,3.7
	c2.4,7.4,5.3,14.6,8.4,21.4c6-15.4,10.6-31.9,12.6-49.6c-2,0.6-4.1,1-6.4,1C219.2,120.1,210.4,120.1,210.4,120.1z"/>
<linearGradient id="partLogo3_1_" gradientUnits="userSpaceOnUse" x1="113.3209" y1="313.8582" x2="394.933" y2="-11.2241" gradientTransform="matrix(1 0 0 -1 0 352)">
	<stop  offset="0.2418" style="stop-color:#fff"/>
	<stop  offset="0.4465" style="stop-color:#fff"/>
	<stop  offset="0.9543" style="stop-color:#fff"/>
</linearGradient>
<path id="partLogo3" class="st3" d="M254.2,249c-2.5-2.5-5.1-5.3-7.8-8.3l0,0c-3-3.3-6.2-7-9.5-10.9c-7.6-9.2-15.7-20.1-23.1-32.2
	c-0.1-0.2-0.2-0.3-0.3-0.6c-0.9-1.5-1.8-2.9-2.6-4.5c-1.6-2.8-3.2-5.6-4.6-8.4c-0.2-0.2-0.3-0.6-0.5-0.8c-1.7-3.2-3.3-6.4-4.8-9.7
	c-1.1-2.4-2.1-4.9-3.2-7.3c-2.5-6.1-4.9-12.5-6.8-19c-3.7-12.7-6.3-26-6.9-40h14.4h12.9h7.6c0.5,0,1-0.1,1.5-0.2
	c1.4-0.3,2.8-1,3.7-2.1c0.3-0.3,0.6-0.7,0.9-1.1c0.7-1.1,1.2-2.4,1.3-3.8c0-0.2,0-0.2,0-0.4l0,0c0-2.1-0.9-3.9-2.1-5.3
	c-1.4-1.4-3.2-2.1-5.3-2.1l0,0h-18.9h-23.7c-2.1,0-3.9,0.9-5.3,2.1c-1.4,1.4-2.1,3.2-2.1,5.3c0,24.9,5.4,48.1,13.7,68.9
	c2.1,5.3,4.4,10.4,6.8,15.4l0,0c2.6,5.4,5.4,10.7,8.4,15.8l0,0c2.5,4.3,5,8.4,7.6,12.4c8.2,12.7,17,23.7,25,33
	c4.4,5.1,8.7,9.6,12.5,13.6l0,0c0.2,0.2,0.4,0.4,0.6,0.6c1.4,1.5,3.4,2.2,5.3,2.2c1.1,0,2.1-0.2,3.2-0.7c0.7-0.3,1.4-0.7,1.9-1.3
	l0,0l0,0l0.1-0.1c0.1-0.1,0.1-0.2,0.2-0.2l0,0c0.2-0.2,0.4-0.4,0.6-0.6l0,0c0.1-0.1,0.2-0.2,0.2-0.2c0.1-0.1,0.2-0.2,0.2-0.2
	c0-0.1,0.1-0.1,0.1-0.2c0.2-0.3,0.3-0.6,0.5-0.9l0.2-0.3c0.3-0.8,0.5-1.6,0.5-2.4c0-0.1,0-0.1,0-0.2c0-0.5,0-1-0.2-1.4
	C255.9,251.5,255.3,250.1,254.2,249z"/>
<linearGradient id="partLogo2_2_" gradientUnits="userSpaceOnUse" x1="-36.9663" y1="235.0337" x2="173.6663" y2="95.7583" gradientTransform="matrix(1 0 0 -1 0 352)">
	<stop  offset="0" style="stop-color:#fff"/>
	<stop  offset="1" style="stop-color:#fff"/>
</linearGradient>
<path id="partLogo2_1_" class="st4" d="M147.2,257.5c0.2,0.2,0.2,0.4,0.4,0.6c0.1,0.1,0.1,0.1,0.2,0.2c0.1,0.1,0.2,0.2,0.2,0.3
	c0.1,0.1,0.2,0.2,0.3,0.3l0.1,0.1l0.1,0.1c0.2,0.2,0.3,0.2,0.5,0.4l0,0c0.1,0.1,0.2,0.1,0.2,0.2c0.2,0.2,0.4,0.2,0.6,0.4
	c0,0,0.1,0,0.1,0.1c0,0,0.1,0,0.1,0.1c0.2,0.1,0.2,0.1,0.4,0.2s0.2,0.2,0.4,0.2c0.1,0,0.1,0,0.2,0.1c0.2,0.1,0.5,0.2,0.7,0.2
	c0.1,0,0.1,0,0.2,0h0.1c0.1,0,0.2,0,0.2,0c0.2,0,0.3,0.1,0.5,0.1c0.1,0,0.2,0,0.2,0s0,0,0.1,0h0.1c0.2,0,0.5,0.1,0.7,0.1h0.1l0,0h31
	c-0.2-0.6-0.4-1.1-0.6-1.8c-1.4-4.7-3.3-9.1-5.6-13.2h-20.5l0,0L138,212.9c-6.1-1.9-12.7-3-19.3-3.3L147.2,257.5
	C147.2,257.4,147.2,257.4,147.2,257.5z"/>
<linearGradient id="partLogo2_3_" gradientUnits="userSpaceOnUse" x1="91.3796" y1="217.0664" x2="269.3554" y2="220.5055" gradientTransform="matrix(1 0 0 -1 0 352)">
	<stop  offset="0.2418" style="stop-color:#fff"/>
	<stop  offset="0.8317" style="stop-color:#fff"/>
	<stop  offset="0.8457" style="stop-color:#fff"/>
</linearGradient>
<path id="partLogo2" class="st5" d="M76.2,137L76.2,137c0,0.2,0,0.4,0.1,0.6c0,0.1,0,0.2,0,0.2c0,0.2,0.1,0.2,0.1,0.4
	c0,0.1,0,0.1,0,0.2v0.1v0.1c0.1,0.2,0.1,0.3,0.2,0.6c0,0.1,0.1,0.2,0.1,0.2c0,0,0,0,0,0.1v0.1c0,0.1,0.1,0.2,0.1,0.3
	c0.1,0.2,0.2,0.5,0.3,0.6l0,0l17.5,29.3l0.7,1.3c5.3-1,10.7-1.7,16.2-1.9L92,136.5l16-26.7l37.7,63c6.8,1.9,13.5,4.4,20,7.6
	c0-0.2,0.1-0.5,0.1-0.7c0.1-1.4-0.2-2.9-1-4.2l-50-84c-0.2-0.4-0.5-0.7-0.8-1.1c-0.1-0.1-0.2-0.2-0.2-0.2c-0.3-0.3-0.6-0.6-1-0.9
	c0,0,0,0-0.1,0c-0.3-0.2-0.7-0.5-1-0.6c-0.1-0.1-0.2-0.1-0.3-0.2c-0.4-0.2-0.8-0.3-1.2-0.4H110c-0.4-0.1-0.8-0.2-1.2-0.2
	c-0.1,0-0.2,0-0.3,0c-0.4,0-0.9,0-1.3,0.1h-0.1c-0.4,0.1-0.8,0.2-1.2,0.3c-0.1,0-0.2,0.1-0.3,0.1c-0.4,0.2-0.8,0.3-1.2,0.6
	c-1.1,0.7-2.1,1.7-2.6,2.7l0,0l-0.1,0.1l-15.9,26.7l-8.6,14.4c-0.2,0.2-0.2,0.4-0.3,0.6c0,0,0,0,0,0.1c-0.1,0.1-0.1,0.2-0.2,0.3
	c-0.1,0.1-0.1,0.2-0.2,0.3c0,0.1,0,0.1-0.1,0.2c0,0.1-0.1,0.2-0.1,0.3c0,0.1,0,0.1-0.1,0.2c-0.1,0.2-0.1,0.3-0.1,0.5c0,0,0,0,0,0.1
	c0,0.1,0,0.1,0,0.2s0,0.2,0,0.2c0,0.1,0,0.2,0,0.2s0,0.2,0,0.2c0,0.2,0,0.2,0,0.4c0,0.2,0,0.2,0,0.4C76.2,136.9,76.2,136.9,76.2,137
	z"/>
<linearGradient id="partLogo1_1_" gradientUnits="userSpaceOnUse" x1="-63.1432" y1="109.0223" x2="416.5831" y2="156.3071" gradientTransform="matrix(1 0 0 -1 0 352)">
	<stop  offset="0.2418" style="stop-color:#fff"/>
	<stop  offset="0.4465" style="stop-color:#fff"/>
	<stop  offset="0.9543" style="stop-color:#fff"/>
</linearGradient>
<path id="partLogo1" class="st6" d="M22.8,257.2c0.9,1.8,2.5,3.3,4.6,4c0.7,0.2,1.4,0.3,2.1,0.3c0.2,0,0.6,0,0.8-0.1
	c0.1,0,0.1,0,0.2,0l19.2,0.1l38.1,0.2l0,0l0,0l0,0c0,0,0,0,0.1,0c0,0,0,0,0.1,0c0.2,0,0.6,0,0.8-0.1c0.1,0,0.2,0,0.3-0.1
	c0.2,0,0.4-0.1,0.6-0.2l0,0c0.1,0,0.2,0,0.2-0.1c0.1,0,0.2-0.1,0.2-0.1c0.5-0.2,1-0.4,1.4-0.6l0,0h0.1l0.1-0.1l0,0
	c0.1-0.1,0.2-0.2,0.3-0.2c0.1-0.1,0.2-0.2,0.3-0.2c0.1-0.1,0.2-0.1,0.2-0.2c0,0,0.1,0,0.1-0.1c0.1-0.1,0.2-0.2,0.3-0.2
	c0.1-0.1,0.2-0.2,0.2-0.2c0.1-0.1,0.2-0.2,0.2-0.2l0.1-0.1c0.1-0.1,0.2-0.2,0.2-0.2c0.1-0.1,0.2-0.2,0.2-0.3c0-0.1,0.1-0.1,0.1-0.2
	l0.1-0.1c0.1-0.1,0.2-0.2,0.2-0.3c0.1-0.1,0.1-0.2,0.2-0.3v-0.1c0-0.1,0.1-0.2,0.1-0.2c0.1-0.2,0.1-0.2,0.2-0.4
	c0-0.1,0.1-0.2,0.1-0.2v-0.1c0-0.1,0-0.1,0-0.2s0.1-0.2,0.1-0.2c0-0.1,0-0.1,0.1-0.2c0-0.1,0-0.1,0-0.2s0-0.1,0-0.2
	c0-0.1,0-0.2,0.1-0.2c0-0.1,0.1-0.2,0.1-0.3s0-0.2,0-0.3c0-0.2,0-0.3,0-0.4s0-0.1,0-0.2l0,0l0,0c0-0.1,0-0.1,0-0.2
	c0-0.2,0-0.3,0-0.5c0-0.1,0-0.2,0-0.3c0-0.1,0-0.2-0.1-0.3v-0.1c0-0.1,0-0.2-0.1-0.3c0-0.2-0.1-0.2-0.1-0.4c0-0.2-0.1-0.2-0.1-0.4
	c0-0.1-0.1-0.2-0.1-0.3c-0.1-0.2-0.1-0.2-0.2-0.4l0,0c0-0.1-0.1-0.2-0.1-0.2c-0.1-0.1-0.1-0.2-0.2-0.2c0-0.1-0.1-0.1-0.1-0.2
	c0,0,0,0,0-0.1v-0.1l-7.2-12.1L78,223.2l0,0c-0.2-0.4-0.5-0.7-0.8-1.1c-0.1-0.1-0.2-0.2-0.2-0.2c-0.3-0.3-0.6-0.6-1-0.9
	c0,0,0,0-0.1,0c-0.3-0.2-0.7-0.5-1-0.6c-0.1-0.1-0.2-0.1-0.3-0.2c-0.4-0.2-0.8-0.3-1.2-0.4h-0.1c-0.4-0.1-0.8-0.2-1.2-0.2
	c-0.1,0-0.2,0-0.3,0c-0.4,0-0.9,0-1.3,0.1h-0.1c-0.4,0.1-0.8,0.2-1.2,0.3c-0.1,0-0.2,0.1-0.3,0.1c-0.4,0.2-0.8,0.3-1.2,0.6l0,0
	c-3.5,2.1-4.7,6.7-2.5,10.3l4.5,7.6l4.8,8l-19.6,0.1l-14.7-0.1c10.5-23.8,31.9-41.4,57-47.5c4.5-1.1,9.1-1.8,13.8-2.1
	c1.8-0.2,3.7-0.2,5.6-0.2c4.1,0,8.3,0.3,12.3,0.9c6.1,0.9,12.1,2.5,17.8,4.6c8.2,3.1,15.8,7.6,22.5,13c6.3,5.1,11.8,11.1,16.4,17.9
	c2.7,4.1,5.2,8.4,7.2,12.9c1.4,3,2.5,6.2,3.5,9.5l0,0c0.2,0.5,0.3,0.9,0.6,1.3c0.1,0.2,0.2,0.2,0.2,0.4c0.2,0.2,0.3,0.6,0.6,0.8
	c0.1,0.2,0.2,0.2,0.3,0.4c0.2,0.2,0.4,0.4,0.6,0.6c0.1,0.1,0.2,0.2,0.3,0.3c0.2,0.2,0.6,0.4,0.9,0.6c0.1,0.1,0.2,0.1,0.2,0.2
	c0.4,0.2,0.8,0.4,1.2,0.5c0.1,0,0.2,0.1,0.3,0.1c0.3,0.1,0.6,0.2,1,0.2c0.2,0,0.3,0,0.5,0c0.2,0,0.3,0,0.5,0c0.2,0,0.3,0,0.5,0
	c0.2,0,0.2,0,0.4,0c0.3,0,0.6-0.1,0.9-0.2h0.1l0,0c0.1,0,0.2,0,0.3-0.1c3.8-1.2,6-5.2,5-9.1c0-0.1,0-0.2-0.1-0.3
	c-0.5-1.6-1-3.1-1.6-4.6c-1.7-4.5-3.7-9-6-13.3c-6.8-12.3-16.2-23.3-27.5-31.8c-2.1-1.6-4.4-3.1-6.6-4.5c-5.3-3.3-10.7-6.1-16.5-8.4
	c-4.8-1.9-9.7-3.3-14.8-4.5c-0.7-0.2-1.4-0.3-2.1-0.5c-5.3-1-10.7-1.6-16.1-1.8c-1,0-1.9-0.1-2.9-0.1c-4.7,0-9.4,0.3-14,1
	c-4.5,0.6-9,1.6-13.4,2.9c-10.2,2.9-19.8,7.5-28.7,13.7c-1.1,0.8-2.1,1.5-3.3,2.4c-2,1.5-3.9,3.1-5.8,4.8c-1,1-2.1,1.9-3.1,2.9l0,0
	C38.1,219.1,30.2,230.9,25,244c-1,2.6-2,5.3-2.8,8c-0.4,1.3-0.4,2.5-0.1,3.7C22.4,256.2,22.5,256.6,22.8,257.2z"/>
<!-- <g id="shadowLogo" class="st7">
	<g>
		
			<linearGradient id="SVGID_1_" gradientUnits="userSpaceOnUse" x1="94.9612" y1="216.8276" x2="272.9371" y2="220.2667" gradientTransform="matrix(1 0 0 -1 0 352)">
			<stop  offset="0.2418" style="stop-color:#fff"/>
			<stop  offset="0.8317" style="stop-color:#fff"/>
			<stop  offset="0.8457" style="stop-color:#fff"/>
		</linearGradient>
		<path class="st8" d="M79.8,137.2L79.8,137.2c0,0.2,0,0.4,0.1,0.6c0,0.1,0,0.2,0,0.2c0,0.2,0.1,0.2,0.1,0.4c0,0.1,0,0.1,0,0.2v0.1
			v0.1c0.1,0.2,0.1,0.3,0.2,0.6c0,0.1,0.1,0.2,0.1,0.2c0,0,0,0,0,0.1v0.1c0,0.1,0.1,0.2,0.1,0.3c0.1,0.2,0.2,0.5,0.3,0.6l0,0
			l17.5,29.3l0.7,1.3c5.3-1,10.7-1.7,16.2-1.9l-19.4-32.5l16-26.7l37.7,63c6.8,1.9,13.5,4.4,20,7.6c0-0.2,0.1-0.5,0.1-0.7
			c0.1-1.4-0.2-2.9-1-4.2l-50-84c-0.2-0.4-0.5-0.7-0.8-1.1c-0.1-0.1-0.2-0.2-0.2-0.2c-0.3-0.3-0.6-0.6-1-0.9c0,0,0,0-0.1,0
			c-0.3-0.2-0.7-0.5-1-0.6c-0.1-0.1-0.2-0.1-0.3-0.2c-0.4-0.2-0.8-0.3-1.2-0.4h-0.1c-0.4-0.1-0.8-0.2-1.2-0.2c-0.1,0-0.2,0-0.3,0
			c-0.4,0-0.9,0-1.3,0.1h-0.1c-0.4,0.1-0.8,0.2-1.2,0.3c-0.1,0-0.2,0.1-0.3,0.1c-0.4,0.2-0.8,0.3-1.2,0.6c-1.1,0.7-2.1,1.7-2.6,2.7
			l0,0l-0.1,0.1l-15.9,26.7l-8.6,14.4c-0.2,0.2-0.2,0.4-0.3,0.6c0,0,0,0,0,0.1c-0.1,0.1-0.1,0.2-0.2,0.3c-0.1,0.1-0.1,0.2-0.2,0.3
			c0,0.1,0,0.1-0.1,0.2c0,0.1-0.1,0.2-0.1,0.3c0,0.1,0,0.1-0.1,0.2c-0.1,0.2-0.1,0.3-0.1,0.5c0,0,0,0,0,0.1c0,0.1,0,0.1,0,0.2
			s0,0.2,0,0.2c0,0.1,0,0.2,0,0.2s0,0.2,0,0.2c0,0.2,0,0.2,0,0.4c0,0.2,0,0.2,0,0.4C79.8,137.2,79.8,137.2,79.8,137.2z"/>
		
			<linearGradient id="SVGID_2_" gradientUnits="userSpaceOnUse" x1="-33.3869" y1="234.7967" x2="177.2456" y2="95.5213" gradientTransform="matrix(1 0 0 -1 0 352)">
			<stop  offset="0" style="stop-color:#fff"/>
			<stop  offset="1" style="stop-color:#fff"/>
		</linearGradient>
		<path class="st9" d="M150.8,257.8c0.2,0.2,0.2,0.4,0.4,0.6c0.1,0.1,0.1,0.1,0.2,0.2c0.1,0.1,0.2,0.2,0.2,0.3
			c0.1,0.1,0.2,0.2,0.3,0.3l0.1,0.1l0.1,0.1c0.2,0.2,0.3,0.2,0.5,0.4l0,0c0.1,0.1,0.2,0.1,0.2,0.2c0.2,0.2,0.4,0.2,0.6,0.4
			c0,0,0.1,0,0.1,0.1c0,0,0.1,0,0.1,0.1c0.2,0.1,0.2,0.1,0.4,0.2s0.2,0.2,0.4,0.2c0.1,0,0.1,0,0.2,0.1c0.2,0.1,0.5,0.2,0.7,0.2
			c0.1,0,0.1,0,0.2,0h0.1c0.1,0,0.2,0,0.2,0c0.2,0,0.3,0.1,0.5,0.1c0.1,0,0.2,0,0.2,0s0,0,0.1,0h0.1c0.2,0,0.5,0.1,0.7,0.1h0.1l0,0
			h31c-0.2-0.6-0.4-1.1-0.6-1.8c-1.4-4.7-3.3-9.1-5.6-13.2h-20.5l0,0l-19.8-33.1c-6.1-1.9-12.7-3-19.3-3.3L150.8,257.8
			C150.8,257.7,150.8,257.7,150.8,257.8z"/>
		
			<linearGradient id="SVGID_3_" gradientUnits="userSpaceOnUse" x1="-59.5767" y1="108.9411" x2="420.1496" y2="156.226" gradientTransform="matrix(1 0 0 -1 0 352)">
			<stop  offset="0.2418" style="stop-color:#fff"/>
			<stop  offset="0.4465" style="stop-color:#fff"/>
			<stop  offset="0.9543" style="stop-color:#fff"/>
		</linearGradient>
		<path class="st10" d="M26.4,257.4c0.9,1.8,2.5,3.3,4.6,4c0.7,0.2,1.4,0.3,2.1,0.3c0.2,0,0.6,0,0.8-0.1c0.1,0,0.1,0,0.2,0l19.2,0.1
			l38.1,0.2l0,0l0,0l0,0c0,0,0,0,0.1,0c0,0,0,0,0.1,0c0.2,0,0.6,0,0.8-0.1c0.1,0,0.2,0,0.3-0.1c0.2,0,0.4-0.1,0.6-0.2l0,0
			c0.1,0,0.2,0,0.2-0.1c0.1,0,0.2-0.1,0.2-0.1c0.5-0.2,1-0.4,1.4-0.6l0,0h0.1l0.1-0.1l0,0c0.1-0.1,0.2-0.2,0.3-0.2
			c0.1-0.1,0.2-0.2,0.3-0.2c0.1-0.1,0.2-0.1,0.2-0.2c0,0,0.1,0,0.1-0.1c0.1-0.1,0.2-0.2,0.3-0.2c0.1-0.1,0.2-0.2,0.2-0.2
			c0.1-0.1,0.2-0.2,0.2-0.2l0.1-0.1c0.1-0.1,0.2-0.2,0.2-0.2c0.1-0.1,0.2-0.2,0.2-0.3c0-0.1,0.1-0.1,0.1-0.2l0.1-0.1
			c0.1-0.1,0.2-0.2,0.2-0.3c0.1-0.1,0.1-0.2,0.2-0.3v-0.1c0-0.1,0.1-0.2,0.1-0.2c0.1-0.2,0.1-0.2,0.2-0.4c0-0.1,0.1-0.2,0.1-0.2
			v-0.1c0-0.1,0-0.1,0-0.2s0.1-0.2,0.1-0.2c0-0.1,0-0.1,0.1-0.2c0-0.1,0-0.1,0-0.2c0-0.1,0-0.1,0-0.2s0-0.2,0.1-0.2
			c0-0.1,0.1-0.2,0.1-0.3c0-0.1,0-0.2,0-0.3c0-0.2,0-0.3,0-0.4c0-0.1,0-0.1,0-0.2l0,0l0,0c0-0.1,0-0.1,0-0.2c0-0.2,0-0.3,0-0.5
			c0-0.1,0-0.2,0-0.3s0-0.2-0.1-0.3v-0.1c0-0.1,0-0.2-0.1-0.3c0-0.2-0.1-0.2-0.1-0.4c0-0.2-0.1-0.2-0.1-0.4c0-0.1-0.1-0.2-0.1-0.3
			c-0.1-0.2-0.1-0.2-0.2-0.4l0,0c0-0.1-0.1-0.2-0.1-0.2c-0.1-0.1-0.1-0.2-0.2-0.2c0-0.1-0.1-0.1-0.1-0.2c0,0,0,0,0-0.1v-0.1
			l-7.2-12.1l-8.9-14.9l0,0c-0.2-0.4-0.5-0.7-0.8-1.1c-0.1-0.1-0.2-0.2-0.2-0.2c-0.3-0.3-0.6-0.6-1-0.9c0,0,0,0-0.1,0
			c-0.3-0.2-0.7-0.5-1-0.6c-0.1-0.1-0.2-0.1-0.3-0.2c-0.4-0.2-0.8-0.3-1.2-0.4h-0.1c-0.4-0.1-0.8-0.2-1.2-0.2c-0.1,0-0.2,0-0.3,0
			c-0.4,0-0.9,0-1.3,0.1H74c-0.4,0.1-0.8,0.2-1.2,0.3c-0.1,0-0.2,0.1-0.3,0.1c-0.4,0.2-0.8,0.3-1.2,0.6l0,0
			c-3.5,2.1-4.7,6.7-2.5,10.3l4.5,7.6l4.8,8l-19.6-0.1l-14.7-0.1c10.5-23.8,31.9-41.4,57-47.5c4.5-1.1,9.1-1.8,13.8-2.1
			c1.8-0.2,3.7-0.2,5.6-0.2c4.1,0,8.3,0.3,12.3,0.9c6.1,0.9,12.1,2.5,17.8,4.6c8.2,3.1,15.8,7.6,22.5,13
			c6.3,5.1,11.8,11.1,16.4,17.9c2.7,4.1,5.2,8.4,7.2,12.9c1.4,3,2.5,6.2,3.5,9.5l0,0c0.2,0.5,0.3,0.9,0.6,1.3
			c0.1,0.2,0.2,0.2,0.2,0.4c0.2,0.2,0.3,0.6,0.6,0.8c0.1,0.2,0.2,0.2,0.3,0.4c0.2,0.2,0.4,0.4,0.6,0.6c0.1,0.1,0.2,0.2,0.3,0.3
			c0.2,0.2,0.6,0.4,0.9,0.6c0.1,0.1,0.2,0.1,0.2,0.2c0.4,0.2,0.8,0.4,1.2,0.5c0.1,0,0.2,0.1,0.3,0.1c0.3,0.1,0.6,0.2,1,0.2
			c0.2,0,0.3,0,0.5,0c0.2,0,0.3,0,0.5,0c0.2,0,0.3,0,0.5,0c0.2,0,0.2,0,0.4,0c0.3,0,0.6-0.1,0.9-0.2h0.1l0,0c0.1,0,0.2,0,0.3-0.1
			c3.8-1.2,6-5.2,5-9.1c0-0.1,0-0.2-0.1-0.3c-0.5-1.6-1-3.1-1.6-4.6c-1.7-4.5-3.7-9-6-13.3c-6.8-12.3-16.2-23.3-27.5-31.8
			c-2.1-1.6-4.4-3.1-6.6-4.5c-5.3-3.3-10.7-6.1-16.5-8.4c-4.8-1.9-9.7-3.3-14.8-4.5c-0.7-0.2-1.4-0.3-2.1-0.5
			c-5.3-1-10.7-1.6-16.1-1.8c-1,0-1.9-0.1-2.9-0.1c-4.7,0-9.4,0.3-14,1c-4.5,0.6-9,1.6-13.4,2.9c-10.2,2.9-19.8,7.5-28.7,13.7
			c-1.1,0.8-2.1,1.5-3.3,2.4c-2,1.5-3.9,3.1-5.8,4.8c-1,1-2.1,1.9-3.1,2.9l0,0c-10.1,9.8-18.1,21.7-23.2,34.7c-1,2.6-2,5.3-2.8,8
			c-0.4,1.3-0.4,2.5-0.1,3.7C26,256.4,26.1,256.9,26.4,257.4z"/>
	</g>
	<g>
		
			<linearGradient id="SVGID_4_" gradientUnits="userSpaceOnUse" x1="330.776" y1="137.6978" x2="245.6632" y2="211.6341" gradientTransform="matrix(1 0 0 -1 0 352)">
			<stop  offset="0" style="stop-color:#fff"/>
			<stop  offset="1" style="stop-color:#fff"/>
		</linearGradient>
		<path class="st11" d="M272.1,187.6l-16.6,40c4,4.5,7.7,8.6,11.1,12.1l27.1-65.2l22.4-54.2H300L272.1,187.6z"/>
		
			<linearGradient id="SVGID_5_" gradientUnits="userSpaceOnUse" x1="116.9003" y1="313.6227" x2="398.5123" y2="-11.4597" gradientTransform="matrix(1 0 0 -1 0 352)">
			<stop  offset="0.2418" style="stop-color:#fff"/>
			<stop  offset="0.4465" style="stop-color:#fff"/>
			<stop  offset="0.9543" style="stop-color:#fff"/>
		</linearGradient>
		<path class="st12" d="M257.8,249.2c-2.5-2.5-5.1-5.3-7.8-8.3l0,0c-3-3.3-6.2-7-9.5-10.9c-7.6-9.2-15.7-20.1-23.1-32.2
			c-0.1-0.2-0.2-0.3-0.3-0.6c-0.9-1.5-1.8-2.9-2.6-4.5c-1.6-2.8-3.2-5.6-4.6-8.4c-0.2-0.2-0.3-0.6-0.5-0.8c-1.7-3.2-3.3-6.4-4.8-9.7
			c-1.1-2.4-2.1-4.9-3.2-7.3c-2.5-6.1-4.9-12.5-6.8-19c-3.7-12.7-6.3-26-6.9-40h14.4H215h7.6c0.5,0,1-0.1,1.5-0.2
			c1.4-0.3,2.8-1,3.7-2.1c0.3-0.3,0.6-0.7,0.9-1.1c0.7-1.1,1.2-2.4,1.3-3.8c0-0.2,0-0.2,0-0.4l0,0c0-2.1-0.9-3.9-2.1-5.3
			c-1.4-1.4-3.2-2.1-5.3-2.1l0,0h-18.9H180c-2.1,0-3.9,0.9-5.3,2.1c-1.4,1.4-2.1,3.2-2.1,5.3c0,24.9,5.4,48.1,13.7,68.9
			c2.1,5.3,4.4,10.4,6.8,15.4l0,0c2.6,5.4,5.4,10.7,8.4,15.8l0,0c2.5,4.3,5,8.4,7.6,12.4c8.2,12.7,17,23.7,25,33
			c4.4,5.1,8.7,9.6,12.5,13.6l0,0c0.2,0.2,0.4,0.4,0.6,0.6c1.4,1.5,3.4,2.2,5.3,2.2c1.1,0,2.1-0.2,3.2-0.7c0.7-0.3,1.4-0.7,1.9-1.3
			l0,0l0,0l0.1-0.1c0.1-0.1,0.1-0.2,0.2-0.2l0,0c0.2-0.2,0.4-0.4,0.6-0.6l0,0c0.1-0.1,0.2-0.2,0.2-0.2c0.1-0.1,0.2-0.2,0.2-0.2
			c0-0.1,0.1-0.1,0.1-0.2c0.2-0.3,0.3-0.6,0.5-0.9l0.2-0.3c0.3-0.8,0.5-1.6,0.5-2.4c0-0.1,0-0.1,0-0.2c0-0.5,0-1-0.2-1.4
			C259.5,251.6,258.9,250.3,257.8,249.2z"/>
		
			<linearGradient id="SVGID_6_" gradientUnits="userSpaceOnUse" x1="129.6931" y1="316.39" x2="283.2972" y2="137.5672" gradientTransform="matrix(1 0 0 -1 0 352)">
			<stop  offset="0" style="stop-color:#fff"/>
			<stop  offset="1" style="stop-color:#fff"/>
		</linearGradient>
		<path class="st13" d="M214,120.4c-0.3,2.5-0.7,5-1.1,7.6c-1,5.4-2.1,10.7-3.6,15.9c-0.3,1.2-0.7,2.5-1,3.7
			c2.4,7.4,5.3,14.6,8.4,21.4c6-15.4,10.6-31.9,12.6-49.6c-2,0.6-4.1,1-6.4,1C222.8,120.4,214,120.4,214,120.4z"/>
		
			<linearGradient id="SVGID_7_" gradientUnits="userSpaceOnUse" x1="25.3748" y1="208.6732" x2="494.7844" y2="208.6732" gradientTransform="matrix(1 0 0 -1 0 352)">
			<stop  offset="0.2418" style="stop-color:#fff"/>
			<stop  offset="0.4465" style="stop-color:#fff"/>
			<stop  offset="0.9543" style="stop-color:#fff"/>
		</linearGradient>
		<path class="st14" d="M324,99.9c0-0.5-0.1-1-0.2-1.5l0,0c0-0.2-0.1-0.2-0.2-0.4c0-0.1,0-0.2-0.1-0.2c-0.1-0.2-0.2-0.6-0.2-0.8
			c-0.1-0.2-0.2-0.2-0.2-0.4c-0.1-0.1-0.1-0.2-0.2-0.3l0,0c-0.1-0.2-0.2-0.4-0.3-0.6c-0.2-0.2-0.3-0.4-0.5-0.6l0,0
			c-0.2-0.2-0.3-0.4-0.5-0.6c-0.1-0.1-0.2-0.2-0.3-0.2c-0.2-0.1-0.2-0.2-0.4-0.3c-0.2-0.1-0.2-0.2-0.4-0.3h-0.1
			c-0.4-0.2-0.8-0.5-1.2-0.6l0,0l0,0c-0.1-0.1-0.2-0.1-0.3-0.1h-0.1c-0.3-0.2-0.7-0.2-1-0.3l0,0c-0.3-0.1-0.6-0.1-0.9-0.1
			c-0.1,0-0.1,0-0.2,0c-0.2,0-0.2,0-0.4,0l0,0l0,0l0,0h-18.9h-28.4c-0.4,0-0.8,0-1.2,0.1c-2.8,0.5-5.1,2.5-5.9,5.2l-17.3,42.9
			l-17.3,42.9c-1.1,2.8-0.4,5.8,1.5,7.9c0.1,0.1,0.1,0.2,0.2,0.2c0.7,0.7,1.5,1.3,2.5,1.6c0.3,0.2,0.6,0.2,1,0.3
			c0.6,0.2,1.2,0.2,1.8,0.2c2.3,0,4.5-1.1,6-2.9c0.4-0.6,0.7-1.1,1-1.8l32.9-81.7h17.1h14l0,0h11.2c1,0,2-0.2,2.9-0.6
			c1.8-0.7,3.2-2.1,4-4l0,0l0,0l0,0c0.1-0.1,0.1-0.2,0.1-0.3l0,0c0.2-0.3,0.2-0.7,0.3-1l0,0c0.1-0.4,0.1-0.8,0.1-1.1l0,0
			C323.9,100.1,324,100.1,324,99.9L324,99.9z"/>
	</g>
</g> -->
<g id="letter01">
	
		<linearGradient id="shadowLetter1_1_" gradientUnits="userSpaceOnUse" x1="250.037" y1="180.053" x2="884.6036" y2="-12.527" gradientTransform="matrix(1 0 0 -1 0 352)">
		<stop  offset="0.2418" style="stop-color:#fff"/>
		<stop  offset="0.4465" style="stop-color:#fff"/>
		<stop  offset="0.9543" style="stop-color:#fff"/>
	</linearGradient>
	<!-- <path id="shadowLetter1" class="st15" d="M373.8,219.4h-45.9l-12.4,32.7h-15.2l43.3-112.4h14.6l43.4,112.4h-15.3L373.8,219.4z
		 M350.9,160l-17.5,45.5h34.9L350.9,160z"/> -->
	
		<linearGradient id="letter1_1_" gradientUnits="userSpaceOnUse" x1="240.3248" y1="180.1016" x2="874.8914" y2="-12.4783" gradientTransform="matrix(1 0 0 -1 0 352)">
		<stop  offset="0.2418" style="stop-color:#fff"/>
		<stop  offset="0.4465" style="stop-color:#fff"/>
		<stop  offset="0.9543" style="stop-color:#fff"/>
	</linearGradient>
	<path id="letter1" class="st16" d="M364,219.4h-45.9l-12.4,32.7h-15.2l43.3-112.5h14.6L391.8,252h-15.3L364,219.4z M341.2,160
		l-17.5,45.5h34.9L341.2,160z"/>
</g>
<g id="letter02">
	
		<linearGradient id="shadowLetter2_1_" gradientUnits="userSpaceOnUse" x1="254.2734" y1="225.3857" x2="888.84" y2="32.8059" gradientTransform="matrix(1 0 0 -1 0 352)">
		<stop  offset="0.2418" style="stop-color:#fff"/>
		<stop  offset="0.4465" style="stop-color:#fff"/>
		<stop  offset="0.9543" style="stop-color:#fff"/>
	</linearGradient>
	<!-- <path id="shadowLetter2" class="st17" d="M466.6,194.2l-33,57.9h-15.2l-31.4-112.4h14.9l26,94l30.8-53.9h15.9l30.7,53.9l26.2-94
		h14.9L515,252h-15.2L466.6,194.2z"/> -->
	
		<linearGradient id="letter2_1_" gradientUnits="userSpaceOnUse" x1="244.5532" y1="225.4081" x2="879.1198" y2="32.8282" gradientTransform="matrix(1 0 0 -1 0 352)">
		<stop  offset="0.2418" style="stop-color:#fff"/>
		<stop  offset="0.4465" style="stop-color:#fff"/>
		<stop  offset="0.9543" style="stop-color:#fff"/>
	</linearGradient>
	<path id="letter2" class="st18" d="M456.9,194.2l-33,57.9h-15.2l-31.4-112.4h14.9l26,94l30.8-53.9H465l30.7,53.9l26.2-94h14.9
		L505.3,252h-15.2L456.9,194.2z"/>
</g>
<g id="letter03">
	
		<linearGradient id="shadowLetter3_1_" gradientUnits="userSpaceOnUse" x1="258.6436" y1="257.2579" x2="893.2101" y2="64.678" gradientTransform="matrix(1 0 0 -1 0 352)">
		<stop  offset="0.2418" style="stop-color:#fff"/>
		<stop  offset="0.4465" style="stop-color:#fff"/>
		<stop  offset="0.9543" style="stop-color:#fff"/>
	</linearGradient>
	<!-- <path id="shadowLetter3" class="st19" d="M582.6,251.9c-11.7-2.3-23.2-8.2-33.5-17.1l9.4-10.5c8.3,7.3,17.7,12.1,27,14
		c7.9,1.8,15.6,1.2,21.8-1.8c4.1-1.9,11.3-6.6,11.3-16.2c0-11.8-12.6-16.1-25-18.4c-1.2-0.1-18.9-3.8-25.9-7.9
		c-9.5-5.7-14.5-14.2-14.5-24.7c0-5.8,1.9-11.4,5.3-16.2c3.4-4.4,7.9-8,13.3-10.5c7.9-3.8,17.2-4.8,26.7-3.4
		c10.2,1.8,20.8,6.6,29.8,14.2l-9.1,11c-16.2-13.4-32-13.7-41.5-9.4c-6.4,3.1-10.2,8.5-10.2,14.2c0,10.7,9.2,14.9,23.7,18
		c6,1.5,18.4,3.5,25.9,7.7c10.2,5.7,15.6,14.5,15.6,25.4c0,6.4-1.8,12.4-5.4,17.7c-3.4,4.7-8.3,8.3-14,11.3
		c-6,3.1-12.1,3.9-19.1,3.9C590.2,253.2,586.4,252.8,582.6,251.9z"/> -->
	
		<linearGradient id="letter3_1_" gradientUnits="userSpaceOnUse" x1="248.9111" y1="257.2397" x2="883.4777" y2="64.6597" gradientTransform="matrix(1 0 0 -1 0 352)">
		<stop  offset="0.2418" style="stop-color:#fff"/>
		<stop  offset="0.4465" style="stop-color:#fff"/>
		<stop  offset="0.9543" style="stop-color:#fff"/>
	</linearGradient>
	<path id="letter3" class="st20" d="M572.8,251.9c-11.7-2.3-23.2-8.2-33.5-17.1l9.4-10.5c8.3,7.3,17.7,12.1,27,14
		c7.9,1.8,15.6,1.2,21.8-1.8c4.1-1.9,11.3-6.6,11.3-16.2c0-11.8-12.6-16.1-25-18.4c-1.2-0.1-18.9-3.8-25.9-7.9
		c-9.5-5.7-14.5-14.2-14.5-24.7c0-5.8,1.9-11.4,5.3-16.2c3.4-4.4,7.9-8,13.3-10.5c7.9-3.8,17.2-4.8,26.7-3.4
		c10.2,1.8,20.8,6.6,29.8,14.2l-9.1,11c-16.2-13.4-32-13.7-41.5-9.4c-6.4,3.1-10.2,8.5-10.2,14.2c0,10.7,9.2,14.9,23.7,18
		c6,1.5,18.4,3.5,25.9,7.7c10.2,5.7,15.6,14.5,15.6,25.4c0,6.4-1.8,12.4-5.4,17.7c-3.4,4.7-8.3,8.3-14,11.3
		c-6,3.1-12.1,3.9-19.1,3.9C580.4,253.2,576.6,252.8,572.8,251.9z"/>
</g>
<g id="letter04">
	
		<linearGradient id="shadowLetter4_1_" gradientUnits="userSpaceOnUse" x1="261.8949" y1="278.6808" x2="896.4615" y2="86.1009" gradientTransform="matrix(1 0 0 -1 0 352)">
		<stop  offset="0.2418" style="stop-color:#fff"/>
		<stop  offset="0.4465" style="stop-color:#fff"/>
		<stop  offset="0.9543" style="stop-color:#fff"/>
	</linearGradient>
	<!-- <path id="shadowLetter4" class="st21" d="M710.7,219.4h-45.9l-12.4,32.7h-15.2l43.3-112.4H695l43.4,112.4h-15.3L710.7,219.4z
		 M687.9,160l-17.5,45.5h34.9L687.9,160z"/> -->
	
		<linearGradient id="letter4_1_" gradientUnits="userSpaceOnUse" x1="252.1749" y1="278.7032" x2="886.7413" y2="86.1233" gradientTransform="matrix(1 0 0 -1 0 352)">
		<stop  offset="0.2418" style="stop-color:#fff"/>
		<stop  offset="0.4465" style="stop-color:#fff"/>
		<stop  offset="0.9543" style="stop-color:#fff"/>
	</linearGradient>
	<path id="letter4" class="st22" d="M701,219.4h-45.9l-12.4,32.7h-15.2l43.3-112.4h14.6l43.4,112.4h-15.3L701,219.4z M678.1,160
		l-17.5,45.5h34.9L678.1,160z"/>
</g>
<g id="letter05">
	
		<linearGradient id="shadowLetter5_1_" gradientUnits="userSpaceOnUse" x1="269.7569" y1="305.0375" x2="904.3235" y2="112.4576" gradientTransform="matrix(1 0 0 -1 0 352)">
		<stop  offset="0.2418" style="stop-color:#fff"/>
		<stop  offset="0.4465" style="stop-color:#fff"/>
		<stop  offset="0.9543" style="stop-color:#fff"/>
	</linearGradient>
	<!-- <path id="shadowLetter5" class="st23" d="M753.3,139.6h14.2v98.7H829V252h-75.9V139.6H753.3z"/> -->
	
		<linearGradient id="letter5_1_" gradientUnits="userSpaceOnUse" x1="260.0368" y1="305.0599" x2="894.6034" y2="112.48" gradientTransform="matrix(1 0 0 -1 0 352)">
		<stop  offset="0.2418" style="stop-color:#fff"/>
		<stop  offset="0.4465" style="stop-color:#fff"/>
		<stop  offset="0.9543" style="stop-color:#fff"/>
	</linearGradient>
	<path id="letter5" class="st24" d="M743.6,139.6h14.2v98.7h61.5V252h-75.9V139.6H743.6z"/>
</g>
</svg>
