<?xml version="1.0" encoding="utf-8"?>
<!-- Generator: Adobe Illustrator 22.0.1, SVG Export Plug-In . SVG Version: 6.00 Build 0)  -->
<svg version="1.1" id="Layer_1" xmlns="http://www.w3.org/2000/svg" xmlns:xlink="http://www.w3.org/1999/xlink" x="0px" y="0px"
	 viewBox="0 0 450 450" style="enable-background:new 0 0 450 450;" xml:space="preserve">
<style type="text/css">
	.st0{fill:url(#partLogo6_1_);}
	.st1{fill:url(#partLogo5_1_);}
	.st2{fill:url(#partLogo4_1_);}
	.st3{fill:url(#partLogo3_1_);}
	.st4{fill:url(#partLogo2_2_);}
	.st5{fill:url(#partLogo2_3_);}
	.st6{fill:url(#partLogo1_1_);}
	.st7{opacity:0.2;}
	.st8{fill:url(#SVGID_1_);}
	.st9{fill:url(#SVGID_2_);}
	.st10{fill:url(#SVGID_3_);}
	.st11{fill:url(#SVGID_4_);}
	.st12{fill:url(#SVGID_5_);}
	.st13{fill:url(#SVGID_6_);}
	.st14{fill:url(#SVGID_7_);}
	.st15{opacity:0.2;fill:url(#shadowLetter1_1_);}
	.st16{fill:url(#letter1_1_);}
	.st17{opacity:0.2;fill:url(#shadowLetter2_1_);}
	.st18{fill:url(#letter2_1_);}
	.st19{opacity:0.2;fill:url(#shadowLetter3_1_);}
	.st20{fill:url(#letter3_1_);}
	.st21{opacity:0.2;fill:url(#shadowLetter4_1_);}
	.st22{fill:url(#letter4_1_);}
	.st23{opacity:0.2;fill:url(#shadowLetter5_1_);}
	.st24{fill:url(#letter5_1_);}
</style>
<linearGradient id="partLogo6_1_" gradientUnits="userSpaceOnUse" x1="418.7435" y1="225.0817" x2="311.8235" y2="132.2018">
	<stop  offset="0" style="stop-color:#fff"/>
	<stop  offset="1" style="stop-color:#fff"/>
</linearGradient>
<path id="partLogo6" class="st0" d="M345,191.6l-20.9,50.3c5,5.7,9.7,10.8,14,15.2l34-81.9l28.2-68.1H380L345,191.6z"/>
<linearGradient id="partLogo5_1_" gradientUnits="userSpaceOnUse" x1="35.0629" y1="135.6623" x2="624.7429" y2="135.6623">
	<stop  offset="0.2418" style="stop-color:#fff"/>
	<stop  offset="0.4465" style="stop-color:#fff"/>
	<stop  offset="0.9543" style="stop-color:#fff"/>
</linearGradient>
<path id="partLogo5" class="st1" d="M410.2,81.4c0-0.6-0.1-1.3-0.2-1.9c0,0,0,0,0,0c0-0.2-0.1-0.3-0.2-0.5c0-0.1,0-0.2-0.1-0.2
	c-0.1-0.3-0.2-0.7-0.3-1c-0.1-0.2-0.2-0.3-0.3-0.5c-0.1-0.1-0.1-0.3-0.2-0.4c0,0,0,0,0,0c-0.1-0.2-0.2-0.5-0.4-0.7
	c-0.2-0.2-0.4-0.5-0.6-0.7c0,0,0,0,0,0c-0.2-0.2-0.4-0.5-0.6-0.7c-0.1-0.1-0.3-0.2-0.4-0.3c-0.2-0.1-0.3-0.3-0.5-0.4
	c-0.2-0.1-0.3-0.3-0.5-0.4c0,0-0.1,0-0.1,0c-0.5-0.3-1-0.6-1.5-0.8c0,0,0,0,0,0c0,0,0,0,0,0c-0.1-0.1-0.3-0.1-0.4-0.1
	c0,0-0.1,0-0.1,0c-0.4-0.2-0.9-0.3-1.3-0.4c0,0,0,0,0,0c-0.4-0.1-0.8-0.1-1.1-0.1c-0.1,0-0.1,0-0.2,0c-0.2,0-0.3,0-0.5,0h0h0h0H377
	h-35.7c-0.5,0-1,0-1.5,0.1c-3.5,0.6-6.4,3.1-7.4,6.5l-21.7,53.9L289,186.4c-1.4,3.5-0.5,7.3,1.9,9.9c0.1,0.1,0.1,0.2,0.2,0.3
	c0.9,0.9,1.9,1.6,3.1,2c0.4,0.2,0.8,0.2,1.2,0.4c0.8,0.2,1.5,0.3,2.3,0.3c2.9,0,5.7-1.4,7.5-3.7c0.5-0.7,0.9-1.4,1.2-2.2l41.3-102.6
	h21.5h17.6h0h14.1c1.3,0,2.5-0.3,3.7-0.7c2.2-0.9,4-2.7,5-5c0,0,0,0,0,0l0,0c0,0,0,0,0,0c0.1-0.1,0.1-0.3,0.1-0.4c0,0,0,0,0,0
	c0.2-0.4,0.3-0.9,0.4-1.3v0c0.1-0.5,0.1-1,0.1-1.4c0,0,0,0,0,0C410.1,81.7,410.2,81.6,410.2,81.4C410.2,81.4,410.2,81.4,410.2,81.4z
	"/>
<linearGradient id="partLogo4_1_" gradientUnits="userSpaceOnUse" x1="166.0857" y1="0.6613" x2="359.0457" y2="225.3013">
	<stop  offset="0" style="stop-color:#fff"/>
	<stop  offset="1" style="stop-color:#fff"/>
</linearGradient>
<path id="partLogo4" class="st2" d="M272,107.1c-0.4,3.2-0.9,6.3-1.4,9.5c-1.2,6.8-2.7,13.5-4.5,20c-0.4,1.5-0.9,3.1-1.3,4.6
	c3,9.3,6.6,18.3,10.5,26.9c7.6-19.3,13.3-40.1,15.8-62.3c-2.5,0.8-5.2,1.3-8,1.3H272z"/>
<linearGradient id="partLogo3_1_" gradientUnits="userSpaceOnUse" x1="150.0751" y1="4.0858" x2="503.8407" y2="412.4595">
	<stop  offset="0.2418" style="stop-color:#fff"/>
	<stop  offset="0.4465" style="stop-color:#fff"/>
	<stop  offset="0.9543" style="stop-color:#fff"/>
</linearGradient>
<path id="partLogo3" class="st3" d="M327,269c-3.1-3.2-6.4-6.6-9.8-10.4h0c-3.8-4.2-7.8-8.8-11.9-13.7c-9.6-11.6-19.7-25.2-29-40.5
	c-0.1-0.2-0.3-0.4-0.4-0.7c-1.1-1.9-2.2-3.7-3.3-5.6c-2-3.5-4-7-5.8-10.6c-0.2-0.3-0.4-0.7-0.6-1c-2.1-4-4.1-8.1-6-12.2
	c-1.4-3-2.7-6.1-4-9.2c-3.2-7.7-6.1-15.7-8.5-23.9c-4.7-15.9-7.9-32.7-8.7-50.3h18.1h16.2h9.6c0.6,0,1.3-0.1,1.9-0.2
	c1.8-0.4,3.5-1.3,4.7-2.6c0.4-0.4,0.8-0.9,1.1-1.4c0.9-1.4,1.5-3,1.6-4.8c0-0.2,0-0.3,0-0.5c0,0,0,0,0,0c0-2.6-1.1-4.9-2.7-6.6
	c-1.7-1.7-4-2.7-6.6-2.7h0h-23.8h-29.8c-2.6,0-4.9,1.1-6.6,2.7c-1.7,1.7-2.7,4-2.7,6.6c0,31.3,6.8,60.4,17.2,86.6
	c2.6,6.7,5.5,13.1,8.5,19.4c0,0,0,0,0,0c3.3,6.8,6.8,13.5,10.5,19.8c0,0,0,0,0,0c3.1,5.4,6.3,10.6,9.6,15.6
	c10.3,15.9,21.3,29.8,31.4,41.5c5.5,6.4,10.9,12.1,15.7,17.1c0,0,0,0,0,0c0.2,0.2,0.5,0.5,0.7,0.7c1.8,1.9,4.3,2.8,6.7,2.8
	c1.4,0,2.7-0.3,4-0.9c0.9-0.4,1.7-0.9,2.4-1.6c0,0,0,0,0,0c0,0,0,0,0,0c0,0,0.1-0.1,0.1-0.1c0.1-0.1,0.1-0.2,0.2-0.2c0,0,0,0,0,0
	c0.3-0.3,0.5-0.5,0.7-0.8c0,0,0,0,0,0c0.1-0.1,0.2-0.2,0.2-0.3c0.1-0.1,0.2-0.2,0.2-0.3c0-0.1,0.1-0.1,0.1-0.2
	c0.2-0.4,0.4-0.7,0.6-1.1l0.2-0.4c0.4-1,0.6-2,0.6-3c0-0.1,0-0.1,0-0.2c0-0.6,0-1.2-0.2-1.8C329.2,272.1,328.4,270.4,327,269z"/>
<linearGradient id="partLogo2_2_" gradientUnits="userSpaceOnUse" x1="-38.6949" y1="103.0497" x2="225.9051" y2="278.0097">
	<stop  offset="0" style="stop-color:#fff"/>
	<stop  offset="1" style="stop-color:#fff"/>
</linearGradient>
<path id="partLogo2_1_" class="st4" d="M192.6,279.7c0.2,0.3,0.3,0.5,0.5,0.8c0.1,0.1,0.1,0.1,0.2,0.2c0.1,0.1,0.2,0.2,0.3,0.4
	c0.1,0.1,0.3,0.3,0.4,0.4c0,0,0.1,0.1,0.1,0.1c0,0,0.1,0.1,0.1,0.1c0.2,0.2,0.4,0.3,0.6,0.5c0,0,0,0,0,0c0.1,0.1,0.2,0.1,0.3,0.2
	c0.2,0.2,0.5,0.3,0.7,0.5c0,0,0.1,0,0.1,0.1c0,0,0.1,0,0.1,0.1c0.2,0.1,0.3,0.1,0.5,0.2c0.2,0.1,0.3,0.2,0.5,0.2
	c0.1,0,0.1,0,0.2,0.1c0.3,0.1,0.6,0.2,0.9,0.3c0.1,0,0.1,0,0.2,0c0,0,0.1,0,0.1,0c0.1,0,0.2,0,0.2,0c0.2,0,0.4,0.1,0.6,0.1
	c0.1,0,0.2,0,0.2,0c0,0,0,0,0.1,0c0,0,0.1,0,0.1,0c0.3,0,0.6,0.1,0.9,0.1c0,0,0.1,0,0.1,0c0,0,0,0,0,0h38.9
	c-0.3-0.7-0.5-1.4-0.8-2.2c-1.8-5.9-4.2-11.4-7-16.6h-25.8h0L181,223.7c-7.7-2.4-15.9-3.8-24.3-4.1l35.8,60
	C192.6,279.6,192.6,279.6,192.6,279.7z"/>
<linearGradient id="partLogo2_3_" gradientUnits="userSpaceOnUse" x1="122.4783" y1="125.6992" x2="346.0545" y2="121.3789">
	<stop  offset="0.2418" style="stop-color:#fff"/>
	<stop  offset="0.8317" style="stop-color:#fff"/>
	<stop  offset="0.8457" style="stop-color:#fff"/>
</linearGradient>
<path id="partLogo2" class="st5" d="M103.4,128.3c0,0,0,0.1,0,0.1c0,0.2,0,0.4,0.1,0.6c0,0.1,0,0.2,0,0.2c0,0.2,0.1,0.3,0.1,0.5
	c0,0.1,0,0.1,0,0.2c0,0,0,0.1,0,0.1c0,0,0,0.1,0,0.1c0.1,0.2,0.1,0.4,0.2,0.7c0,0.1,0.1,0.2,0.1,0.3c0,0,0,0,0,0.1c0,0,0,0.1,0,0.1
	c0,0.1,0.1,0.2,0.1,0.4c0.1,0.3,0.3,0.6,0.4,0.8c0,0,0,0,0,0l22,36.8l0.9,1.6c6.7-1.3,13.5-2.1,20.4-2.4l-24.4-40.8l20.1-33.6
	l47.3,79.1c8.6,2.4,17,5.5,25.1,9.5c0-0.3,0.1-0.6,0.1-0.9c0.1-1.8-0.3-3.7-1.3-5.3L151.8,71c-0.3-0.5-0.6-0.9-1-1.4
	c-0.1-0.1-0.2-0.2-0.3-0.3c-0.4-0.4-0.8-0.8-1.2-1.1c0,0,0,0-0.1,0c-0.4-0.3-0.9-0.6-1.3-0.8c-0.1-0.1-0.2-0.1-0.4-0.2
	c-0.5-0.2-1-0.4-1.5-0.5c0,0-0.1,0-0.1,0c-0.5-0.1-1-0.2-1.5-0.2c-0.1,0-0.3,0-0.4,0c-0.5,0-1.1,0-1.6,0.1c0,0-0.1,0-0.1,0
	c-0.5,0.1-1,0.2-1.5,0.4c-0.1,0-0.3,0.1-0.4,0.1c-0.5,0.2-1,0.4-1.5,0.7c-1.4,0.9-2.6,2.1-3.3,3.4c0,0,0,0,0,0c0,0-0.1,0.1-0.1,0.1
	l-20,33.5l-10.8,18.1c-0.2,0.3-0.3,0.5-0.4,0.8c0,0,0,0,0,0.1c-0.1,0.1-0.1,0.3-0.2,0.4c-0.1,0.1-0.1,0.3-0.2,0.4
	c0,0.1,0,0.1-0.1,0.2c0,0.1-0.1,0.3-0.1,0.4c0,0.1,0,0.1-0.1,0.2c-0.1,0.2-0.1,0.4-0.1,0.6c0,0,0,0,0,0.1c0,0.1,0,0.1,0,0.2
	c0,0.1,0,0.2,0,0.2c0,0.1,0,0.2,0,0.3c0,0.1,0,0.2,0,0.3c0,0.2,0,0.3,0,0.5c0,0.2,0,0.3,0,0.5C103.4,128.2,103.4,128.2,103.4,128.3z
	"/>
<linearGradient id="partLogo1_1_" gradientUnits="userSpaceOnUse" x1="-71.6266" y1="261.5243" x2="531.0134" y2="202.1243">
	<stop  offset="0.2418" style="stop-color:#fff"/>
	<stop  offset="0.4465" style="stop-color:#fff"/>
	<stop  offset="0.9543" style="stop-color:#fff"/>
</linearGradient>
<path id="partLogo1" class="st6" d="M36.3,279.3c1.1,2.3,3.1,4.2,5.8,5c0.9,0.3,1.8,0.4,2.7,0.4c0.3,0,0.7,0,1-0.1
	c0.1,0,0.1,0,0.2,0l24.1,0.1l47.8,0.2c0,0,0,0,0,0c0,0,0,0,0,0c0,0,0,0,0,0c0,0,0,0,0.1,0c0,0,0,0,0.1,0c0.3,0,0.7,0,1-0.1
	c0.1,0,0.2,0,0.4-0.1c0.3,0,0.5-0.1,0.8-0.2c0,0,0,0,0,0c0.1,0,0.2,0,0.3-0.1c0.1,0,0.2-0.1,0.3-0.1c0.6-0.2,1.3-0.5,1.8-0.8
	c0,0,0,0,0,0c0,0,0.1,0,0.1,0c0,0,0.1-0.1,0.1-0.1c0,0,0,0,0,0c0.1-0.1,0.3-0.2,0.4-0.3c0.1-0.1,0.2-0.2,0.4-0.3
	c0.1-0.1,0.2-0.1,0.2-0.2c0,0,0.1,0,0.1-0.1c0.1-0.1,0.3-0.2,0.4-0.3c0.1-0.1,0.2-0.2,0.3-0.3c0.1-0.1,0.2-0.2,0.3-0.3
	c0,0,0.1-0.1,0.1-0.1c0.1-0.1,0.2-0.2,0.2-0.3c0.1-0.1,0.2-0.3,0.3-0.4c0-0.1,0.1-0.1,0.1-0.2c0,0,0.1-0.1,0.1-0.1
	c0.1-0.1,0.2-0.3,0.3-0.4c0.1-0.1,0.1-0.3,0.2-0.4c0,0,0-0.1,0-0.1c0-0.1,0.1-0.2,0.1-0.3c0.1-0.2,0.1-0.3,0.2-0.5
	c0-0.1,0.1-0.2,0.1-0.3c0,0,0-0.1,0-0.1c0-0.1,0-0.1,0-0.2c0-0.1,0.1-0.2,0.1-0.3c0-0.1,0-0.1,0.1-0.2c0-0.1,0-0.1,0-0.2
	c0-0.1,0-0.1,0-0.2c0-0.1,0-0.2,0.1-0.3c0-0.1,0.1-0.3,0.1-0.4c0-0.1,0-0.3,0-0.4c0-0.2,0-0.4,0-0.5c0-0.1,0-0.1,0-0.2c0,0,0,0,0,0
	c0,0,0,0,0,0c0-0.1,0-0.1,0-0.2c0-0.2,0-0.4,0-0.6c0-0.1,0-0.3,0-0.4c0-0.1,0-0.3-0.1-0.4c0,0,0-0.1,0-0.1c0-0.1,0-0.3-0.1-0.4
	c0-0.2-0.1-0.3-0.1-0.5c0-0.2-0.1-0.3-0.1-0.5c0-0.1-0.1-0.3-0.1-0.4c-0.1-0.2-0.1-0.3-0.2-0.5c0,0,0,0,0,0c0-0.1-0.1-0.2-0.1-0.3
	c-0.1-0.1-0.1-0.2-0.2-0.3c0-0.1-0.1-0.1-0.1-0.2c0,0,0,0,0-0.1c0,0,0-0.1,0-0.1l-9.1-15.2l-11.2-18.7c0,0,0,0,0,0
	c-0.3-0.5-0.6-0.9-1-1.4c-0.1-0.1-0.2-0.2-0.3-0.3c-0.4-0.4-0.8-0.8-1.2-1.1c0,0,0,0-0.1,0c-0.4-0.3-0.9-0.6-1.3-0.8
	c-0.1-0.1-0.2-0.1-0.4-0.2c-0.5-0.2-1-0.4-1.5-0.5c0,0-0.1,0-0.1,0c-0.5-0.1-1-0.2-1.5-0.2c-0.1,0-0.3,0-0.4,0c-0.5,0-1.1,0-1.6,0.1
	c0,0-0.1,0-0.1,0c-0.5,0.1-1,0.2-1.5,0.4c-0.1,0-0.3,0.1-0.4,0.1c-0.5,0.2-1,0.4-1.5,0.7c0,0,0,0,0,0c-4.4,2.7-5.9,8.4-3.2,12.9
	l5.7,9.5l6,10.1L76.7,266l-18.5-0.1c13.2-29.9,40.1-52,71.6-59.7c5.6-1.4,11.4-2.3,17.3-2.7c2.3-0.2,4.6-0.2,7-0.2
	c5.2,0,10.4,0.4,15.4,1.1c7.7,1.1,15.2,3.1,22.4,5.8c10.3,3.9,19.8,9.5,28.3,16.3c7.9,6.4,14.8,14,20.6,22.5
	c3.4,5.1,6.5,10.5,9,16.2c1.7,3.8,3.2,7.8,4.4,11.9c0,0,0,0,0,0c0.2,0.6,0.4,1.1,0.7,1.6c0.1,0.2,0.2,0.3,0.3,0.5
	c0.2,0.3,0.4,0.7,0.7,1c0.1,0.2,0.3,0.3,0.4,0.5c0.2,0.3,0.5,0.5,0.8,0.8c0.1,0.1,0.3,0.3,0.4,0.4c0.3,0.3,0.7,0.5,1.1,0.7
	c0.1,0.1,0.2,0.1,0.3,0.2c0.5,0.3,1,0.5,1.5,0.6c0.1,0,0.3,0.1,0.4,0.1c0.4,0.1,0.8,0.2,1.2,0.2c0.2,0,0.4,0,0.6,0
	c0.2,0,0.4,0,0.6,0c0.2,0,0.4,0,0.6,0c0.2,0,0.3,0,0.5,0c0.4,0,0.7-0.1,1.1-0.2c0,0,0.1,0,0.1,0h0c0.1,0,0.3,0,0.4-0.1
	c4.8-1.5,7.6-6.5,6.3-11.4c0-0.1,0-0.2-0.1-0.4c-0.6-2-1.3-3.9-2-5.8c-2.1-5.7-4.6-11.3-7.5-16.7c-8.5-15.5-20.3-29.3-34.5-40
	c-2.7-2-5.5-3.9-8.3-5.7c-6.6-4.2-13.5-7.7-20.7-10.5c-6-2.4-12.2-4.2-18.6-5.6c-0.9-0.2-1.8-0.4-2.7-0.6c-6.6-1.3-13.4-2-20.2-2.2
	c-1.2,0-2.4-0.1-3.6-0.1c-5.9,0-11.8,0.4-17.6,1.3c-5.7,0.8-11.3,2-16.8,3.6c-12.8,3.7-24.9,9.4-36,17.2c-1.4,1-2.7,1.9-4.1,3
	c-2.5,1.9-4.9,3.9-7.3,6c-1.3,1.2-2.6,2.4-3.9,3.6c0,0,0,0,0,0c-12.7,12.3-22.7,27.2-29.2,43.6c-1.3,3.3-2.5,6.6-3.5,10
	c-0.5,1.6-0.5,3.2-0.1,4.7C35.8,278,36,278.6,36.3,279.3z"/>
<!-- <g id="shadowLogo" class="st7">
	<g>
		<linearGradient id="SVGID_1_" gradientUnits="userSpaceOnUse" x1="126.9775" y1="125.9927" x2="350.5537" y2="121.6724">
			<stop  offset="0.2418" style="stop-color:#fff"/>
			<stop  offset="0.8317" style="stop-color:#fff"/>
			<stop  offset="0.8457" style="stop-color:#fff"/>
		</linearGradient>
		<path class="st8" d="M107.9,128.6c0,0,0,0.1,0,0.1c0,0.2,0,0.4,0.1,0.6c0,0.1,0,0.2,0,0.2c0,0.2,0.1,0.3,0.1,0.5
			c0,0.1,0,0.1,0,0.2c0,0,0,0.1,0,0.1c0,0,0,0.1,0,0.1c0.1,0.2,0.1,0.4,0.2,0.7c0,0.1,0.1,0.2,0.1,0.3c0,0,0,0,0,0.1
			c0,0,0,0.1,0,0.1c0,0.1,0.1,0.2,0.1,0.4c0.1,0.3,0.3,0.6,0.4,0.8c0,0,0,0,0,0l22,36.8l0.9,1.6c6.7-1.3,13.5-2.1,20.4-2.4
			l-24.4-40.8l20.1-33.6l47.3,79.1c8.6,2.4,17,5.5,25.1,9.5c0-0.3,0.1-0.6,0.1-0.9c0.1-1.8-0.3-3.7-1.3-5.3L156.3,71.3
			c-0.3-0.5-0.6-0.9-1-1.4c-0.1-0.1-0.2-0.2-0.3-0.3c-0.4-0.4-0.8-0.8-1.2-1.1c0,0,0,0-0.1,0c-0.4-0.3-0.9-0.6-1.3-0.8
			c-0.1-0.1-0.2-0.1-0.4-0.2c-0.5-0.2-1-0.4-1.5-0.5c0,0-0.1,0-0.1,0c-0.5-0.1-1-0.2-1.5-0.2c-0.1,0-0.3,0-0.4,0
			c-0.5,0-1.1,0-1.6,0.1c0,0-0.1,0-0.1,0c-0.5,0.1-1,0.2-1.5,0.4c-0.1,0-0.3,0.1-0.4,0.1c-0.5,0.2-1,0.4-1.5,0.7
			c-1.4,0.9-2.6,2.1-3.3,3.4c0,0,0,0,0,0c0,0-0.1,0.1-0.1,0.1l-20,33.5l-10.8,18.1c-0.2,0.3-0.3,0.5-0.4,0.8c0,0,0,0,0,0.1
			c-0.1,0.1-0.1,0.3-0.2,0.4c-0.1,0.1-0.1,0.3-0.2,0.4c0,0.1,0,0.1-0.1,0.2c0,0.1-0.1,0.3-0.1,0.4c0,0.1,0,0.1-0.1,0.2
			c-0.1,0.2-0.1,0.4-0.1,0.6c0,0,0,0,0,0.1c0,0.1,0,0.1,0,0.2c0,0.1,0,0.2,0,0.2c0,0.1,0,0.2,0,0.3c0,0.1,0,0.2,0,0.3
			c0,0.2,0,0.3,0,0.5c0,0.2,0,0.3,0,0.5C107.9,128.5,107.9,128.5,107.9,128.6z"/>
		<linearGradient id="SVGID_2_" gradientUnits="userSpaceOnUse" x1="-34.1957" y1="103.3432" x2="230.4043" y2="278.3032">
			<stop  offset="0" style="stop-color:#fff"/>
			<stop  offset="1" style="stop-color:#fff"/>
		</linearGradient>
		<path class="st9" d="M197.1,280c0.2,0.3,0.3,0.5,0.5,0.8c0.1,0.1,0.1,0.1,0.2,0.2c0.1,0.1,0.2,0.2,0.3,0.4
			c0.1,0.1,0.3,0.3,0.4,0.4c0,0,0.1,0.1,0.1,0.1c0,0,0.1,0.1,0.1,0.1c0.2,0.2,0.4,0.3,0.6,0.5c0,0,0,0,0,0c0.1,0.1,0.2,0.1,0.3,0.2
			c0.2,0.2,0.5,0.3,0.7,0.5c0,0,0.1,0,0.1,0.1c0,0,0.1,0,0.1,0.1c0.2,0.1,0.3,0.1,0.5,0.2c0.2,0.1,0.3,0.2,0.5,0.2
			c0.1,0,0.1,0,0.2,0.1c0.3,0.1,0.6,0.2,0.9,0.3c0.1,0,0.1,0,0.2,0c0,0,0.1,0,0.1,0c0.1,0,0.2,0,0.2,0c0.2,0,0.4,0.1,0.6,0.1
			c0.1,0,0.2,0,0.2,0c0,0,0,0,0.1,0c0,0,0.1,0,0.1,0c0.3,0,0.6,0.1,0.9,0.1c0,0,0.1,0,0.1,0c0,0,0,0,0,0H244
			c-0.3-0.7-0.5-1.4-0.8-2.2c-1.8-5.9-4.2-11.4-7-16.6h-25.8h0L185.5,224c-7.7-2.4-15.9-3.8-24.3-4.1l35.8,60
			C197.1,279.9,197.1,279.9,197.1,280z"/>
		<linearGradient id="SVGID_3_" gradientUnits="userSpaceOnUse" x1="-67.1274" y1="261.8178" x2="535.5126" y2="202.4178">
			<stop  offset="0.2418" style="stop-color:#fff"/>
			<stop  offset="0.4465" style="stop-color:#fff"/>
			<stop  offset="0.9543" style="stop-color:#fff"/>
		</linearGradient>
		<path class="st10" d="M40.8,279.6c1.1,2.3,3.1,4.2,5.8,5c0.9,0.3,1.8,0.4,2.7,0.4c0.3,0,0.7,0,1-0.1c0.1,0,0.1,0,0.2,0l24.1,0.1
			l47.8,0.2c0,0,0,0,0,0c0,0,0,0,0,0c0,0,0,0,0,0c0,0,0,0,0.1,0c0,0,0,0,0.1,0c0.3,0,0.7,0,1-0.1c0.1,0,0.2,0,0.4-0.1
			c0.3,0,0.5-0.1,0.8-0.2c0,0,0,0,0,0c0.1,0,0.2,0,0.3-0.1c0.1,0,0.2-0.1,0.3-0.1c0.6-0.2,1.3-0.5,1.8-0.8c0,0,0,0,0,0
			c0,0,0.1,0,0.1,0c0,0,0.1-0.1,0.1-0.1c0,0,0,0,0,0c0.1-0.1,0.3-0.2,0.4-0.3c0.1-0.1,0.2-0.2,0.4-0.3c0.1-0.1,0.2-0.1,0.2-0.2
			c0,0,0.1,0,0.1-0.1c0.1-0.1,0.3-0.2,0.4-0.3c0.1-0.1,0.2-0.2,0.3-0.3c0.1-0.1,0.2-0.2,0.3-0.3c0,0,0.1-0.1,0.1-0.1
			c0.1-0.1,0.2-0.2,0.2-0.3c0.1-0.1,0.2-0.3,0.3-0.4c0-0.1,0.1-0.1,0.1-0.2c0,0,0.1-0.1,0.1-0.1c0.1-0.1,0.2-0.3,0.3-0.4
			c0.1-0.1,0.1-0.3,0.2-0.4c0,0,0-0.1,0-0.1c0-0.1,0.1-0.2,0.1-0.3c0.1-0.2,0.1-0.3,0.2-0.5c0-0.1,0.1-0.2,0.1-0.3c0,0,0-0.1,0-0.1
			c0-0.1,0-0.1,0-0.2c0-0.1,0.1-0.2,0.1-0.3c0-0.1,0-0.1,0.1-0.2c0-0.1,0-0.1,0-0.2c0-0.1,0-0.1,0-0.2c0-0.1,0-0.2,0.1-0.3
			c0-0.1,0.1-0.3,0.1-0.4c0-0.1,0-0.3,0-0.4c0-0.2,0-0.4,0-0.5c0-0.1,0-0.1,0-0.2c0,0,0,0,0,0c0,0,0,0,0,0c0-0.1,0-0.1,0-0.2
			c0-0.2,0-0.4,0-0.6c0-0.1,0-0.3,0-0.4c0-0.1,0-0.3-0.1-0.4c0,0,0-0.1,0-0.1c0-0.1,0-0.3-0.1-0.4c0-0.2-0.1-0.3-0.1-0.5
			c0-0.2-0.1-0.3-0.1-0.5c0-0.1-0.1-0.3-0.1-0.4c-0.1-0.2-0.1-0.3-0.2-0.5c0,0,0,0,0,0c0-0.1-0.1-0.2-0.1-0.3
			c-0.1-0.1-0.1-0.2-0.2-0.3c0-0.1-0.1-0.1-0.1-0.2c0,0,0,0,0-0.1c0,0,0-0.1,0-0.1l-9.1-15.2l-11.2-18.7c0,0,0,0,0,0
			c-0.3-0.5-0.6-0.9-1-1.4c-0.1-0.1-0.2-0.2-0.3-0.3c-0.4-0.4-0.8-0.8-1.2-1.1c0,0,0,0-0.1,0c-0.4-0.3-0.9-0.6-1.3-0.8
			c-0.1-0.1-0.2-0.1-0.4-0.2c-0.5-0.2-1-0.4-1.5-0.5c0,0-0.1,0-0.1,0c-0.5-0.1-1-0.2-1.5-0.2c-0.1,0-0.3,0-0.4,0
			c-0.5,0-1.1,0-1.6,0.1c0,0-0.1,0-0.1,0c-0.5,0.1-1,0.2-1.5,0.4c-0.1,0-0.3,0.1-0.4,0.1c-0.5,0.2-1,0.4-1.5,0.7c0,0,0,0,0,0
			c-4.4,2.7-5.9,8.4-3.2,12.9l5.7,9.5l6,10.1l-24.6-0.1l-18.5-0.1c13.2-29.9,40.1-52,71.6-59.7c5.6-1.4,11.4-2.3,17.3-2.7
			c2.3-0.2,4.6-0.2,7-0.2c5.2,0,10.4,0.4,15.4,1.1c7.7,1.1,15.2,3.1,22.4,5.8c10.3,3.9,19.8,9.5,28.3,16.3
			c7.9,6.4,14.8,14,20.6,22.5c3.4,5.1,6.5,10.5,9,16.2c1.7,3.8,3.2,7.8,4.4,11.9c0,0,0,0,0,0c0.2,0.6,0.4,1.1,0.7,1.6
			c0.1,0.2,0.2,0.3,0.3,0.5c0.2,0.3,0.4,0.7,0.7,1c0.1,0.2,0.3,0.3,0.4,0.5c0.2,0.3,0.5,0.5,0.8,0.8c0.1,0.1,0.3,0.3,0.4,0.4
			c0.3,0.3,0.7,0.5,1.1,0.7c0.1,0.1,0.2,0.1,0.3,0.2c0.5,0.3,1,0.5,1.5,0.6c0.1,0,0.3,0.1,0.4,0.1c0.4,0.1,0.8,0.2,1.2,0.2
			c0.2,0,0.4,0,0.6,0c0.2,0,0.4,0,0.6,0c0.2,0,0.4,0,0.6,0c0.2,0,0.3,0,0.5,0c0.4,0,0.7-0.1,1.1-0.2c0,0,0.1,0,0.1,0h0
			c0.1,0,0.3,0,0.4-0.1c4.8-1.5,7.6-6.5,6.3-11.4c0-0.1,0-0.2-0.1-0.4c-0.6-2-1.3-3.9-2-5.8c-2.1-5.7-4.6-11.3-7.5-16.7
			c-8.5-15.5-20.3-29.3-34.5-40c-2.7-2-5.5-3.9-8.3-5.7c-6.6-4.2-13.5-7.7-20.7-10.5c-6-2.4-12.2-4.2-18.6-5.6
			c-0.9-0.2-1.8-0.4-2.7-0.6c-6.6-1.3-13.4-2-20.2-2.2c-1.2,0-2.4-0.1-3.6-0.1c-5.9,0-11.8,0.4-17.6,1.3c-5.7,0.8-11.3,2-16.8,3.6
			c-12.8,3.7-24.9,9.4-36,17.2c-1.4,1-2.7,1.9-4.1,3c-2.5,1.9-4.9,3.9-7.3,6c-1.3,1.2-2.6,2.4-3.9,3.6c0,0,0,0,0,0
			c-12.7,12.3-22.7,27.2-29.2,43.6c-1.3,3.3-2.5,6.6-3.5,10c-0.5,1.6-0.5,3.2-0.1,4.7C40.3,278.3,40.5,278.9,40.8,279.6z"/>
	</g>
	<g>
		<linearGradient id="SVGID_4_" gradientUnits="userSpaceOnUse" x1="423.2427" y1="225.3752" x2="316.3227" y2="132.4953">
			<stop  offset="0" style="stop-color:#fff"/>
			<stop  offset="1" style="stop-color:#fff"/>
		</linearGradient>
		<path class="st11" d="M349.5,191.9l-20.9,50.3c5,5.7,9.7,10.8,14,15.2l34-81.9l28.2-68.1h-20.3L349.5,191.9z"/>
		<linearGradient id="SVGID_5_" gradientUnits="userSpaceOnUse" x1="154.5743" y1="4.3793" x2="508.3399" y2="412.7531">
			<stop  offset="0.2418" style="stop-color:#fff"/>
			<stop  offset="0.4465" style="stop-color:#fff"/>
			<stop  offset="0.9543" style="stop-color:#fff"/>
		</linearGradient>
		<path class="st12" d="M331.5,269.3c-3.1-3.2-6.4-6.6-9.8-10.4h0c-3.8-4.2-7.8-8.8-11.9-13.7c-9.6-11.6-19.7-25.2-29-40.5
			c-0.1-0.2-0.3-0.4-0.4-0.7c-1.1-1.9-2.2-3.7-3.3-5.6c-2-3.5-4-7-5.8-10.6c-0.2-0.3-0.4-0.7-0.6-1c-2.1-4-4.1-8.1-6-12.2
			c-1.4-3-2.7-6.1-4-9.2c-3.2-7.7-6.1-15.7-8.5-23.9c-4.7-15.9-7.9-32.7-8.7-50.3h18.1h16.2h9.6c0.6,0,1.3-0.1,1.9-0.2
			c1.8-0.4,3.5-1.3,4.7-2.6c0.4-0.4,0.8-0.9,1.1-1.4c0.9-1.4,1.5-3,1.6-4.8c0-0.2,0-0.3,0-0.5c0,0,0,0,0,0c0-2.6-1.1-4.9-2.7-6.6
			c-1.7-1.7-4-2.7-6.6-2.7h0h-23.8h-29.8c-2.6,0-4.9,1.1-6.6,2.7c-1.7,1.7-2.7,4-2.7,6.6c0,31.3,6.8,60.4,17.2,86.6
			c2.6,6.7,5.5,13.1,8.5,19.4c0,0,0,0,0,0c3.3,6.8,6.8,13.5,10.5,19.8c0,0,0,0,0,0c3.1,5.4,6.3,10.6,9.6,15.6
			c10.3,15.9,21.3,29.8,31.4,41.5c5.5,6.4,10.9,12.1,15.7,17.1c0,0,0,0,0,0c0.2,0.2,0.5,0.5,0.7,0.7c1.8,1.9,4.3,2.8,6.7,2.8
			c1.4,0,2.7-0.3,4-0.9c0.9-0.4,1.7-0.9,2.4-1.6c0,0,0,0,0,0c0,0,0,0,0,0c0,0,0.1-0.1,0.1-0.1c0.1-0.1,0.1-0.2,0.2-0.2c0,0,0,0,0,0
			c0.3-0.3,0.5-0.5,0.7-0.8c0,0,0,0,0,0c0.1-0.1,0.2-0.2,0.2-0.3c0.1-0.1,0.2-0.2,0.2-0.3c0-0.1,0.1-0.1,0.1-0.2
			c0.2-0.4,0.4-0.7,0.6-1.1l0.2-0.4c0.4-1,0.6-2,0.6-3c0-0.1,0-0.1,0-0.2c0-0.6,0-1.2-0.2-1.8C333.7,272.3,332.9,270.6,331.5,269.3z
			"/>
		<linearGradient id="SVGID_6_" gradientUnits="userSpaceOnUse" x1="170.5849" y1="0.9548" x2="363.5449" y2="225.5948">
			<stop  offset="0" style="stop-color:#fff"/>
			<stop  offset="1" style="stop-color:#fff"/>
		</linearGradient>
		<path class="st13" d="M276.5,107.4c-0.4,3.2-0.9,6.3-1.4,9.5c-1.2,6.8-2.7,13.5-4.5,20c-0.4,1.5-0.9,3.1-1.3,4.6
			c3,9.3,6.6,18.3,10.5,26.9c7.6-19.3,13.3-40.1,15.8-62.3c-2.5,0.8-5.2,1.3-8,1.3H276.5z"/>
		<linearGradient id="SVGID_7_" gradientUnits="userSpaceOnUse" x1="39.5621" y1="135.9558" x2="629.2421" y2="135.9558">
			<stop  offset="0.2418" style="stop-color:#fff"/>
			<stop  offset="0.4465" style="stop-color:#fff"/>
			<stop  offset="0.9543" style="stop-color:#fff"/>
		</linearGradient>
		<path class="st14" d="M414.7,81.7c0-0.6-0.1-1.3-0.2-1.9c0,0,0,0,0,0c0-0.2-0.1-0.3-0.2-0.5c0-0.1,0-0.2-0.1-0.2
			c-0.1-0.3-0.2-0.7-0.3-1c-0.1-0.2-0.2-0.3-0.3-0.5c-0.1-0.1-0.1-0.3-0.2-0.4c0,0,0,0,0,0c-0.1-0.2-0.2-0.5-0.4-0.7
			c-0.2-0.2-0.4-0.5-0.6-0.7c0,0,0,0,0,0c-0.2-0.2-0.4-0.5-0.6-0.7c-0.1-0.1-0.3-0.2-0.4-0.3c-0.2-0.1-0.3-0.3-0.5-0.4
			c-0.2-0.1-0.3-0.3-0.5-0.4c0,0-0.1,0-0.1,0c-0.5-0.3-1-0.6-1.5-0.8c0,0,0,0,0,0c0,0,0,0,0,0c-0.1-0.1-0.3-0.1-0.4-0.1
			c0,0-0.1,0-0.1,0c-0.4-0.2-0.9-0.3-1.3-0.4c0,0,0,0,0,0c-0.4-0.1-0.8-0.1-1.1-0.1c-0.1,0-0.1,0-0.2,0c-0.2,0-0.3,0-0.5,0h0h0h0
			h-23.8h-35.7c-0.5,0-1,0-1.5,0.1c-3.5,0.6-6.4,3.1-7.4,6.5l-21.7,53.9l-21.7,53.9c-1.4,3.5-0.5,7.3,1.9,9.9
			c0.1,0.1,0.1,0.2,0.2,0.3c0.9,0.9,1.9,1.6,3.1,2c0.4,0.2,0.8,0.2,1.2,0.4c0.8,0.2,1.5,0.3,2.3,0.3c2.9,0,5.7-1.4,7.5-3.7
			c0.5-0.7,0.9-1.4,1.2-2.2l41.3-102.6h21.5h17.6h0h14.1c1.3,0,2.5-0.3,3.7-0.7c2.2-0.9,4-2.7,5-5c0,0,0,0,0,0l0,0c0,0,0,0,0,0
			c0.1-0.1,0.1-0.3,0.1-0.4c0,0,0,0,0,0c0.2-0.4,0.3-0.9,0.4-1.3v0c0.1-0.5,0.1-1,0.1-1.4c0,0,0,0,0,0
			C414.6,82,414.7,81.9,414.7,81.7C414.7,81.7,414.7,81.7,414.7,81.7z"/>
	</g>
</g> -->
<g id="letter01">
	<linearGradient id="shadowLetter1_1_" gradientUnits="userSpaceOnUse" x1="28.7408" y1="327.4239" x2="462.9008" y2="459.1839">
		<stop  offset="0.2418" style="stop-color:#fff"/>
		<stop  offset="0.4465" style="stop-color:#fff"/>
		<stop  offset="0.9543" style="stop-color:#fff"/>
	</linearGradient>
	<!-- <path id="shadowLetter1" class="st15" d="M113.4,360H82l-8.5,22.4H63.1l29.6-76.9h10l29.7,76.9h-10.5L113.4,360z M97.7,319.3
		l-12,31.1h23.9L97.7,319.3z"/> -->
	<linearGradient id="letter1_1_" gradientUnits="userSpaceOnUse" x1="22.0858" y1="327.4239" x2="456.2458" y2="459.1839">
		<stop  offset="0.2418" style="stop-color:#fff"/>
		<stop  offset="0.4465" style="stop-color:#fff"/>
		<stop  offset="0.9543" style="stop-color:#fff"/>
	</linearGradient>
	<path id="letter1" class="st16" d="M106.7,360H75.3l-8.5,22.4H56.4L86,305.4h10l29.7,76.9h-10.5L106.7,360z M91.1,319.3l-12,31.1
		H103L91.1,319.3z"/>
</g>
<g id="letter02">
	<linearGradient id="shadowLetter2_1_" gradientUnits="userSpaceOnUse" x1="25.4461" y1="296.4872" x2="459.6061" y2="428.2472">
		<stop  offset="0.2418" style="stop-color:#fff"/>
		<stop  offset="0.4465" style="stop-color:#fff"/>
		<stop  offset="0.9543" style="stop-color:#fff"/>
	</linearGradient>
	<!-- <path id="shadowLetter2" class="st17" d="M170.7,342.7l-22.6,39.6h-10.4l-21.5-76.9h10.2l17.8,64.3l21.1-36.9h10.9l21,36.9
		l17.9-64.3h10.2l-21.5,76.9h-10.4L170.7,342.7z"/> -->
	<linearGradient id="letter2_1_" gradientUnits="userSpaceOnUse" x1="18.7911" y1="296.4872" x2="452.9511" y2="428.2472">
		<stop  offset="0.2418" style="stop-color:#fff"/>
		<stop  offset="0.4465" style="stop-color:#fff"/>
		<stop  offset="0.9543" style="stop-color:#fff"/>
	</linearGradient>
	<path id="letter2" class="st18" d="M164.1,342.7l-22.6,39.6h-10.4l-21.5-76.9h10.2l17.8,64.3l21.1-36.9h10.9l21,36.9l17.9-64.3
		h10.2l-21.5,76.9h-10.4L164.1,342.7z"/>
</g>
<g id="letter03">
	<linearGradient id="shadowLetter3_1_" gradientUnits="userSpaceOnUse" x1="22.2549" y1="274.7207" x2="456.4149" y2="406.4807">
		<stop  offset="0.2418" style="stop-color:#fff"/>
		<stop  offset="0.4465" style="stop-color:#fff"/>
		<stop  offset="0.9543" style="stop-color:#fff"/>
	</linearGradient>
	<!-- <path id="shadowLetter3" class="st19" d="M243.9,382.2c-8-1.6-15.9-5.6-22.9-11.7l6.4-7.2c5.7,5,12.1,8.3,18.5,9.6
		c5.4,1.2,10.7,0.8,14.9-1.2c2.8-1.3,7.7-4.5,7.7-11.1c0-8.1-8.6-11-17.1-12.6c-0.8-0.1-12.9-2.6-17.7-5.4
		c-6.5-3.9-9.9-9.7-9.9-16.9c0-4,1.3-7.8,3.6-11.1c2.3-3,5.4-5.5,9.1-7.2c5.4-2.6,11.8-3.3,18.3-2.3c7,1.2,14.2,4.5,20.4,9.7
		l-6.2,7.5c-11.1-9.2-21.9-9.4-28.4-6.4c-4.4,2.1-7,5.8-7,9.7c0,7.3,6.3,10.2,16.2,12.3c4.1,1,12.6,2.4,17.7,5.3
		c7,3.9,10.7,9.9,10.7,17.4c0,4.4-1.2,8.5-3.7,12.1c-2.3,3.2-5.7,5.7-9.6,7.7c-4.1,2.1-8.3,2.7-13.1,2.7
		C249.1,383.1,246.5,382.8,243.9,382.2z"/> -->
	<linearGradient id="letter3_1_" gradientUnits="userSpaceOnUse" x1="15.5999" y1="274.7207" x2="449.7599" y2="406.4807">
		<stop  offset="0.2418" style="stop-color:#fff"/>
		<stop  offset="0.4465" style="stop-color:#fff"/>
		<stop  offset="0.9543" style="stop-color:#fff"/>
	</linearGradient>
	<path id="letter3" class="st20" d="M237.2,382.2c-8-1.6-15.9-5.6-22.9-11.7l6.4-7.2c5.7,5,12.1,8.3,18.5,9.6
		c5.4,1.2,10.7,0.8,14.9-1.2c2.8-1.3,7.7-4.5,7.7-11.1c0-8.1-8.6-11-17.1-12.6c-0.8-0.1-12.9-2.6-17.7-5.4
		c-6.5-3.9-9.9-9.7-9.9-16.9c0-4,1.3-7.8,3.6-11.1c2.3-3,5.4-5.5,9.1-7.2c5.4-2.6,11.8-3.3,18.3-2.3c7,1.2,14.2,4.5,20.4,9.7
		l-6.2,7.5c-11.1-9.2-21.9-9.4-28.4-6.4c-4.4,2.1-7,5.8-7,9.7c0,7.3,6.3,10.2,16.2,12.3c4.1,1,12.6,2.4,17.7,5.3
		c7,3.9,10.7,9.9,10.7,17.4c0,4.4-1.2,8.5-3.7,12.1c-2.3,3.2-5.7,5.7-9.6,7.7c-4.1,2.1-8.3,2.7-13.1,2.7
		C242.4,383.1,239.8,382.8,237.2,382.2z"/>
</g>
<g id="letter04">
	<linearGradient id="shadowLetter4_1_" gradientUnits="userSpaceOnUse" x1="16.2925" y1="259.9364" x2="450.4525" y2="391.6964">
		<stop  offset="0.2418" style="stop-color:#fff"/>
		<stop  offset="0.4465" style="stop-color:#fff"/>
		<stop  offset="0.9543" style="stop-color:#fff"/>
	</linearGradient>
	<!-- <path id="shadowLetter4" class="st21" d="M323.3,360h-31.4l-8.5,22.4H273l29.6-76.9h10l29.7,76.9h-10.5L323.3,360z M307.7,319.3
		l-12,31.1h23.9L307.7,319.3z"/> -->
	<linearGradient id="letter4_1_" gradientUnits="userSpaceOnUse" x1="9.6376" y1="259.9364" x2="443.7975" y2="391.6964">
		<stop  offset="0.2418" style="stop-color:#fff"/>
		<stop  offset="0.4465" style="stop-color:#fff"/>
		<stop  offset="0.9543" style="stop-color:#fff"/>
	</linearGradient>
	<path id="letter4" class="st22" d="M316.7,360h-31.4l-8.5,22.4h-10.4l29.6-76.9h10l29.7,76.9h-10.5L316.7,360z M301,319.3l-12,31.1
		h23.9L301,319.3z"/>
</g>
<g id="letter05">
	<linearGradient id="shadowLetter5_1_" gradientUnits="userSpaceOnUse" x1="15.4826" y1="241.9691" x2="449.6426" y2="373.7291">
		<stop  offset="0.2418" style="stop-color:#fff"/>
		<stop  offset="0.4465" style="stop-color:#fff"/>
		<stop  offset="0.9543" style="stop-color:#fff"/>
	</linearGradient>
	<!-- <path id="shadowLetter5" class="st23" d="M346.3,305.4h9.7v67.5h42.1v9.4h-51.9V305.4z"/> -->
	<linearGradient id="letter5_1_" gradientUnits="userSpaceOnUse" x1="8.8276" y1="241.9691" x2="442.9876" y2="373.7291">
		<stop  offset="0.2418" style="stop-color:#fff"/>
		<stop  offset="0.4465" style="stop-color:#fff"/>
		<stop  offset="0.9543" style="stop-color:#fff"/>
	</linearGradient>
	<path id="letter5" class="st24" d="M339.7,305.4h9.7v67.5h42.1v9.4h-51.9V305.4z"/>
</g>
</svg>
